<svg width="262" height="32" viewBox="0 0 262 32" fill="none" xmlns="http://www.w3.org/2000/svg">
<g clip-path="url(#clip0_4111_1340)">
<mask id="mask0_4111_1340" style="mask-type:luminance" maskUnits="userSpaceOnUse" x="0" y="0" width="262" height="32">
<path d="M262 0H0V32H262V0Z" fill="white"/>
</mask>
<g mask="url(#mask0_4111_1340)">
<path d="M50.946 21.9105L39.7491 2.93291C37.2944 -1.02249 31.3083 -1.06457 28.9397 3.10122L17.1831 22.8362C14.9867 26.4549 17.6998 30.9994 22.0925 30.9994H45.6489C50.0847 30.9994 53.4007 26.3286 50.946 21.9105Z" fill="#C7C7C7"/>
<path d="M34.7967 23.3832L34.1077 22.205C33.4618 21.1109 32.0406 18.7545 32.0406 18.7545L22.5663 2.68048C20.1116 -0.896209 14.2979 -1.19076 11.8432 3.31166L0.818556 21.9525C-1.46388 25.8658 1.2492 30.9573 6.20168 30.9995H29.6289H39.62H45.563C39.4909 31.0416 37.553 27.9697 34.7967 23.3832Z" fill="white"/>
<path d="M34.7966 23.3831L34.1076 22.2051C33.4617 21.111 32.0405 18.7546 32.0405 18.7546L25.9253 8.23486L17.14 22.8783C14.9438 26.497 17.6568 31.0415 22.0496 31.0415H29.5858H39.5769H45.563C39.4478 30.9994 37.5528 27.9698 34.7966 23.3831Z" fill="url(#paint0_linear_4111_1340)"/>
<path d="M258.589 29.5264C256.995 29.5264 255.746 29.1898 254.8 28.6007C253.808 27.9695 253.292 27.0437 253.292 25.7813V7.43506H255.79C256.694 7.43506 257.469 8.1504 257.469 9.07613V25.2343C257.469 25.2765 257.469 26.0338 258.115 26.665C258.502 27.0437 258.976 27.2541 259.622 27.2541H260.096C260.269 27.2541 260.44 27.4225 260.44 27.5907V29.5685L258.589 29.5264Z" fill="white"/>
<path d="M204.757 29.5259C202.173 29.5259 200.063 28.8527 198.469 27.5061C197.652 26.8329 197.092 26.0754 196.748 25.2338C196.403 24.3923 196.23 23.1719 196.23 21.5309C196.23 19.932 196.403 18.6695 196.748 17.8279C197.049 17.0285 197.609 16.3131 198.427 15.6399C200.02 14.2934 202.13 13.6201 204.714 13.6201C207.298 13.6201 209.408 14.2934 211.002 15.6399C211.821 16.3131 212.38 17.0706 212.681 17.8279C213.026 18.7116 213.198 19.932 213.198 21.5309C213.198 23.1719 213.026 24.3923 212.681 25.2338C212.337 26.0754 211.777 26.8329 210.958 27.5061C209.452 28.8527 207.342 29.5259 204.757 29.5259ZM204.757 15.9344C201.914 15.9344 200.494 17.8279 200.494 21.573C200.494 25.3601 201.914 27.2536 204.757 27.2536C207.599 27.2536 209.021 25.3601 209.021 21.615C209.021 17.8279 207.557 15.9344 204.757 15.9344Z" fill="white"/>
<path d="M222.586 29.5264C220.347 29.5264 218.28 28.9373 216.515 27.8012C216.342 27.6328 215.997 27.4225 215.567 27.17C215.481 27.1279 215.395 27.0016 215.395 26.8754V7.43506H217.935C218.84 7.43506 219.615 8.19247 219.615 9.07613V14.7567L220.39 14.336C221.295 13.8731 222.5 13.6627 224.05 13.6627C226.764 13.6627 228.83 14.4622 230.209 16.0191C231.414 17.4077 232.018 19.2591 232.018 21.5314C232.018 23.8037 231.329 25.6552 229.95 27.0016C228.356 28.6848 225.859 29.5264 222.586 29.5264ZM223.016 15.9349C222.07 15.9349 220.992 16.2716 219.787 16.987L219.615 17.0711V26.2022L219.787 26.3284C220.735 26.9175 221.855 27.212 223.016 27.212C224.567 27.212 225.774 26.5809 226.591 25.3186C227.28 24.3086 227.668 23.0042 227.668 21.5314C227.668 17.8284 226.075 15.9349 223.016 15.9349Z" fill="white"/>
<path d="M241.967 29.4838C237.229 29.4838 234.258 26.4542 234.258 21.5309C234.258 16.6499 237.185 13.6201 241.879 13.6201C243.688 13.6201 245.238 14.083 246.488 14.9666L246.746 15.135V13.9147H250.062C250.277 13.9147 250.407 14.083 250.407 14.2513V29.1893H246.703V27.8427L246.444 28.0531C245.412 28.9789 243.774 29.4838 241.967 29.4838ZM242.827 16.3131C239.855 16.3131 238.09 18.5433 238.09 21.5309C238.09 24.5185 239.855 26.8329 242.827 26.8329C243.774 26.8329 245.412 26.7488 246.703 25.4863L246.746 25.4442V17.7859L246.703 17.7438C245.798 16.734 244.463 16.3131 242.827 16.3131Z" fill="white"/>
<path d="M88.9556 29.3156V7.39258H107.603V8.78118C107.603 9.87521 106.698 10.7589 105.579 10.7589H93.6065V16.6498H105.579V20.0162H93.6065V25.9071H105.579C106.698 25.9071 107.603 26.7908 107.603 27.8849V29.2735L88.9556 29.3156Z" fill="white"/>
<path d="M134.39 7.39258H129.997C129.179 7.39258 128.447 7.7292 127.93 8.36038L122.633 14.8826L117.336 8.40247C116.819 7.77129 116.087 7.43465 115.269 7.43465H110.876L119.79 18.3751L110.876 29.3156H115.269C116.087 29.3156 116.819 28.979 117.336 28.3478L122.633 21.8677L127.973 28.3899C128.49 28.979 129.222 29.3577 130.04 29.3577H134.433L125.518 18.4172L134.39 7.39258Z" fill="white"/>
<path d="M74.357 27.0028L80.4722 16.5673V29.2751H85.1234V7.35205H82.2379C81.3336 7.35205 80.4722 7.81491 80.0416 8.61441L72.7206 21.6588L65.3996 8.61441C64.9688 7.81491 64.1075 7.35205 63.2031 7.35205H60.3179V29.2751H64.9688V16.5673L71.084 27.0028H74.357Z" fill="white"/>
<path d="M146.533 29.5685C140.074 29.6526 134.82 24.6873 134.777 18.3755C134.777 14.925 135.853 12.0637 137.878 10.086C139.902 8.15037 142.83 7.09839 146.318 7.09839C150.409 7.09839 153.639 8.48699 155.965 11.18L154.501 12.4003C153.596 13.1577 152.261 13.1998 151.271 12.4845C149.979 11.5167 148.342 11.0538 146.49 11.0538C141.926 11.0538 139.212 13.7468 139.212 18.2914C139.212 22.8779 142.012 25.6973 146.49 25.6973C148.385 25.6973 149.979 25.1923 151.271 24.2665C152.218 23.5511 153.553 23.5933 154.501 24.3507L155.965 25.5709C153.639 28.2219 150.539 29.5685 146.533 29.5685Z" fill="white"/>
<path d="M175.172 29.5682C167.937 29.5682 163.458 25.2763 163.458 18.3752C163.458 11.4744 167.937 7.18237 175.086 7.18237C178.531 7.18237 181.416 8.15018 183.656 10.1279L182.58 11.3061C182.106 11.811 181.416 12.1056 180.727 12.1056C180.34 12.1056 179.952 12.0214 179.607 11.8531C178.272 11.1798 176.722 10.8432 175.086 10.8432C170.434 10.8432 167.549 13.7467 167.549 18.4175C167.549 23.1301 170.564 26.0336 175.387 26.0336C177.713 26.0336 179.522 25.6129 180.857 24.6872L180.942 24.6451V20.1426H175.818V18.6698C175.818 17.5759 176.722 16.6922 177.842 16.6922H184.172C184.345 16.6922 184.517 16.8604 184.517 17.0288V26.749C182.321 28.6005 179.177 29.5682 175.172 29.5682Z" fill="white"/>
<path d="M192.829 29.5264C191.235 29.5264 189.986 29.1898 189.039 28.6007C188.049 27.9695 187.531 27.0437 187.531 25.7813V7.43506H190.03C190.934 7.43506 191.709 8.1504 191.709 9.07613V25.2343C191.709 25.2765 191.709 26.0338 192.355 26.665C192.743 27.0437 193.216 27.2541 193.861 27.2541H194.335C194.509 27.2541 194.68 27.4225 194.68 27.5907V29.5685L192.829 29.5264Z" fill="white"/>
</g>
</g>
<defs>
<linearGradient id="paint0_linear_4111_1340" x1="14.0134" y1="16.2247" x2="41.0755" y2="26.4597" gradientUnits="userSpaceOnUse">
<stop stop-color="white" stop-opacity="0"/>
<stop offset="1" stop-color="white"/>
</linearGradient>
<clipPath id="clip0_4111_1340">
<rect width="262" height="32" fill="white"/>
</clipPath>
</defs>
</svg>
