<svg width="125" height="32" viewBox="0 0 125 32" fill="none" xmlns="http://www.w3.org/2000/svg">
<path d="M11.8108 0H9.84229V2H11.8108V0Z" fill="white"/>
<path d="M13.7795 0H11.811V2H13.7795V0Z" fill="white"/>
<path d="M15.7478 0H13.7793V2H15.7478V0Z" fill="#E3E3E3"/>
<path d="M23.6218 0H21.6533V2H23.6218V0Z" fill="white"/>
<path d="M25.5906 0H23.6221V2H25.5906V0Z" fill="white"/>
<path d="M27.5588 0H25.5903V2H27.5588V0Z" fill="#E3E3E3"/>
<path d="M9.84229 4V2H7.87378V4H9.84229Z" fill="#E3E3E3"/>
<path d="M11.8108 2H9.84229V4H11.8108V2Z" fill="#7C7C7C"/>
<path d="M13.7795 2H11.811V4H13.7795V2Z" fill="#7C7C7C"/>
<path d="M15.7478 2H13.7793V4H15.7478V2Z" fill="white"/>
<path d="M17.7163 4V2H15.7478V4H17.7163Z" fill="#E3E3E3"/>
<path d="M21.6533 4V2H19.6848V4H21.6533Z" fill="#E3E3E3"/>
<path d="M23.6218 2H21.6533V4H23.6218V2Z" fill="#7C7C7C"/>
<path d="M25.5906 2H23.6221V4H25.5906V2Z" fill="#7C7C7C"/>
<path d="M27.5588 2H25.5903V4H27.5588V2Z" fill="white"/>
<path d="M29.5273 4V2H27.5588V4H29.5273Z" fill="#E3E3E3"/>
<path d="M9.84229 6V4H7.87378V6H9.84229Z" fill="#E3E3E3"/>
<path d="M11.8108 4H9.84229V6H11.8108V4Z" fill="white"/>
<path d="M13.7795 4H11.811V6H13.7795V4Z" fill="white"/>
<path d="M15.7478 4H13.7793V6H15.7478V4Z" fill="white"/>
<path d="M17.7163 6V4H15.7478V6H17.7163Z" fill="#E3E3E3"/>
<path d="M21.6533 6V4H19.6848V6H21.6533Z" fill="#E3E3E3"/>
<path d="M23.6218 4H21.6533V6H23.6218V4Z" fill="white"/>
<path d="M25.5906 4H23.6221V6H25.5906V4Z" fill="white"/>
<path d="M27.5588 4H25.5903V6H27.5588V4Z" fill="#676767"/>
<path d="M29.5273 6V4H27.5588V6H29.5273Z" fill="#E3E3E3"/>
<path d="M9.84229 8V6H7.87378V8H9.84229Z" fill="#E3E3E3"/>
<path d="M11.8108 6H9.84229V8H11.8108V6Z" fill="black"/>
<path d="M13.7795 6H11.811V8H13.7795V6Z" fill="white"/>
<path d="M15.7478 6H13.7793V8H15.7478V6Z" fill="white"/>
<path d="M17.7163 8V6H15.7478V8H17.7163Z" fill="#E3E3E3"/>
<path d="M19.6848 6H17.7163V8H19.6848V6Z" fill="#E3E3E3"/>
<path d="M21.6533 8V6H19.6848V8H21.6533Z" fill="#E3E3E3"/>
<path d="M23.6218 6H21.6533V8H23.6218V6Z" fill="black"/>
<path d="M25.5906 6H23.6221V8H25.5906V6Z" fill="white"/>
<path d="M27.5588 6H25.5903V8H27.5588V6Z" fill="#676767"/>
<path d="M29.5273 8V6H27.5588V8H29.5273Z" fill="#E3E3E3"/>
<path d="M3.93677 8H1.96826V10H3.93677V8Z" fill="#E3E3E3"/>
<path d="M5.90552 8H3.93701V10H5.90552V8Z" fill="#E3E3E3"/>
<path d="M9.84229 10V8H7.87378V10H9.84229Z" fill="#E3E3E3"/>
<path d="M11.8108 8H9.84229V10H11.8108V8Z" fill="black"/>
<path d="M13.7795 8H11.811V10H13.7795V8Z" fill="white"/>
<path d="M15.7478 8H13.7793V10H15.7478V8Z" fill="white"/>
<path d="M17.7166 8H15.748V10H17.7166V8Z" fill="white"/>
<path d="M19.6848 8H17.7163V10H19.6848V8Z" fill="white"/>
<path d="M21.6536 8H19.6851V10H21.6536V8Z" fill="#676767"/>
<path d="M23.6218 8H21.6533V10H23.6218V8Z" fill="black"/>
<path d="M25.5906 8H23.6221V10H25.5906V8Z" fill="white"/>
<path d="M27.5588 8H25.5903V10H27.5588V8Z" fill="#676767"/>
<path d="M29.5273 10V8H27.5588V10H29.5273Z" fill="#E3E3E3"/>
<path d="M1.96826 12L1.96826 10H-0.000242114L-0.000242114 12H1.96826Z" fill="#E3E3E3"/>
<path d="M3.93677 10H1.96826V12H3.93677V10Z" fill="#7C7C7C"/>
<path d="M5.90552 10H3.93701V12H5.90552V10Z" fill="#7C7C7C"/>
<path d="M7.87378 10H5.90527V12H7.87378V10Z" fill="#E3E3E3"/>
<path d="M9.84253 10H7.87402V12H9.84253V10Z" fill="#676767"/>
<path d="M11.8108 10H9.84229V12H11.8108V10Z" fill="white"/>
<path d="M13.7795 10H11.811V12H13.7795V10Z" fill="white"/>
<path d="M15.7478 10H13.7793V12H15.7478V10Z" fill="white"/>
<path d="M17.7166 10H15.748V12H17.7166V10Z" fill="white"/>
<path d="M19.6848 10H17.7163V12H19.6848V10Z" fill="white"/>
<path d="M21.6536 10H19.6851V12H21.6536V10Z" fill="white"/>
<path d="M23.6218 10H21.6533V12H23.6218V10Z" fill="white"/>
<path d="M25.5906 10H23.6221V12H25.5906V10Z" fill="white"/>
<path d="M27.5588 10H25.5903V12H27.5588V10Z" fill="white"/>
<path d="M29.5276 10H27.5591V12H29.5276V10Z" fill="white"/>
<path d="M31.4961 12V10H29.5276V12H31.4961Z" fill="#E3E3E3"/>
<path d="M1.96826 14L1.96826 12H-0.000242114L-0.000242114 14H1.96826Z" fill="#E3E3E3"/>
<path d="M3.93677 12H1.96826V14H3.93677V12Z" fill="white"/>
<path d="M5.90552 12H3.93701V14H5.90552V12Z" fill="#7C7C7C"/>
<path d="M7.87378 12H5.90527V14H7.87378V12Z" fill="#7C7C7C"/>
<path d="M9.84253 12H7.87402V14H9.84253V12Z" fill="#7C7C7C"/>
<path d="M11.8108 12H9.84229V14H11.8108V12Z" fill="white"/>
<path d="M13.7795 12H11.811V14H13.7795V12Z" fill="white"/>
<path d="M15.7478 12H13.7793V14H15.7478V12Z" fill="white"/>
<path d="M17.7166 12H15.748V14H17.7166V12Z" fill="white"/>
<path d="M19.6848 12H17.7163V14H19.6848V12Z" fill="white"/>
<path d="M21.6536 12H19.6851V14H21.6536V12Z" fill="white"/>
<path d="M23.6218 12H21.6533V14H23.6218V12Z" fill="white"/>
<path d="M25.5906 12H23.6221V14H25.5906V12Z" fill="white"/>
<path d="M27.5588 12H25.5903V14H27.5588V12Z" fill="white"/>
<path d="M29.5276 12H27.5591V14H29.5276V12Z" fill="#676767"/>
<path d="M31.4961 14V12H29.5276V14H31.4961Z" fill="#E3E3E3"/>
<path d="M1.96826 16L1.96826 14H-0.000242114L-0.000242114 16H1.96826Z" fill="#E3E3E3"/>
<path d="M3.93677 14H1.96826V16H3.93677V14Z" fill="white"/>
<path d="M5.90552 14H3.93701V16H5.90552V14Z" fill="white"/>
<path d="M7.87378 14H5.90527V16H7.87378V14Z" fill="white"/>
<path d="M9.84253 14H7.87402V16H9.84253V14Z" fill="white"/>
<path d="M11.8108 14H9.84229V16H11.8108V14Z" fill="white"/>
<path d="M13.7795 14H11.811V16H13.7795V14Z" fill="white"/>
<path d="M15.7478 14H13.7793V16H15.7478V14Z" fill="white"/>
<path d="M17.7166 14H15.748V16H17.7166V14Z" fill="white"/>
<path d="M19.6848 14H17.7163V16H19.6848V14Z" fill="white"/>
<path d="M21.6536 14H19.6851V16H21.6536V14Z" fill="white"/>
<path d="M23.6218 14H21.6533V16H23.6218V14Z" fill="white"/>
<path d="M25.5906 14H23.6221V16H25.5906V14Z" fill="white"/>
<path d="M27.5588 14H25.5903V16H27.5588V14Z" fill="white"/>
<path d="M29.5276 14H27.5591V16H29.5276V14Z" fill="#676767"/>
<path d="M31.4961 16V14H29.5276V16H31.4961Z" fill="#E3E3E3"/>
<path d="M1.96826 18L1.96826 16H-0.000242114L-0.000242114 18H1.96826Z" fill="#E3E3E3"/>
<path d="M3.93677 16H1.96826V18H3.93677V16Z" fill="#676767"/>
<path d="M5.90552 16H3.93701V18H5.90552V16Z" fill="#676767"/>
<path d="M7.87378 16H5.90527V18H7.87378V16Z" fill="black"/>
<path d="M9.84253 16H7.87402V18H9.84253V16Z" fill="black"/>
<path d="M11.8108 16H9.84229V18H11.8108V16Z" fill="black"/>
<path d="M13.7795 16H11.811V18H13.7795V16Z" fill="white"/>
<path d="M15.7478 16H13.7793V18H15.7478V16Z" fill="white"/>
<path d="M17.7166 16H15.748V18H17.7166V16Z" fill="white"/>
<path d="M19.6848 16H17.7163V18H19.6848V16Z" fill="white"/>
<path d="M21.6536 16H19.6851V18H21.6536V16Z" fill="white"/>
<path d="M23.6218 16H21.6533V18H23.6218V16Z" fill="white"/>
<path d="M25.5906 16H23.6221V18H25.5906V16Z" fill="white"/>
<path d="M27.5588 16H25.5903V18H27.5588V16Z" fill="#676767"/>
<path d="M29.5276 16H27.5591V18H29.5276V16Z" fill="#676767"/>
<path d="M31.4961 18V16H29.5276V18H31.4961Z" fill="#E3E3E3"/>
<path d="M3.93677 18H1.96826V20H3.93677V18Z" fill="#E3E3E3"/>
<path d="M5.90552 18H3.93701V20H5.90552V18Z" fill="#E3E3E3"/>
<path d="M7.87378 18H5.90527V20H7.87378V18Z" fill="#E3E3E3"/>
<path d="M9.84253 18H7.87402V20H9.84253V18Z" fill="#676767"/>
<path d="M11.8108 18H9.84229V20H11.8108V18Z" fill="#676767"/>
<path d="M13.7795 18H11.811V20H13.7795V18Z" fill="#676767"/>
<path d="M15.7478 18H13.7793V20H15.7478V18Z" fill="white"/>
<path d="M17.7166 18H15.748V20H17.7166V18Z" fill="white"/>
<path d="M19.6848 18H17.7163V20H19.6848V18Z" fill="white"/>
<path d="M21.6536 18H19.6851V20H21.6536V18Z" fill="white"/>
<path d="M23.6218 18H21.6533V20H23.6218V18Z" fill="white"/>
<path d="M25.5906 18H23.6221V20H25.5906V18Z" fill="#676767"/>
<path d="M27.5588 18H25.5903V20H27.5588V18Z" fill="#676767"/>
<path d="M29.5273 20V18H27.5588V20H29.5273Z" fill="#E3E3E3"/>
<path d="M9.84253 20H7.87402V22H9.84253V20Z" fill="#E3E3E3"/>
<path d="M11.8108 20H9.84229V22H11.8108V20Z" fill="#E3E3E3"/>
<path d="M13.7795 20H11.811V22H13.7795V20Z" fill="#676767"/>
<path d="M15.7478 20H13.7793V22H15.7478V20Z" fill="#676767"/>
<path d="M17.7166 20H15.748V22H17.7166V20Z" fill="white"/>
<path d="M19.6848 20H17.7163V22H19.6848V20Z" fill="white"/>
<path d="M21.6536 20H19.6851V22H21.6536V20Z" fill="#676767"/>
<path d="M23.6218 20H21.6533V22H23.6218V20Z" fill="#676767"/>
<path d="M25.5903 22V20H23.6218V22H25.5903Z" fill="#676767"/>
<path d="M27.5591 22V20H25.5906V22H27.5591Z" fill="#E3E3E3"/>
<path d="M13.7795 22H11.811V24H13.7795V22Z" fill="#E3E3E3"/>
<path d="M15.7478 22H13.7793V24H15.7478V22Z" fill="#676767"/>
<path d="M17.7166 22H15.748V24H17.7166V22Z" fill="#D2D2D2"/>
<path d="M19.6848 22H17.7163V24H19.6848V22Z" fill="#D2D2D2"/>
<path d="M21.6536 22H19.6851V24H21.6536V22Z" fill="white"/>
<path d="M23.6218 22H21.6533V24H23.6218V22Z" fill="#676767"/>
<path d="M25.5903 24V22H23.6218V24H25.5903Z" fill="#E3E3E3"/>
<path d="M11.8108 24H9.84229V26H11.8108V24Z" fill="#E3E3E3"/>
<path d="M13.7795 24H11.811V26H13.7795V24Z" fill="#676767"/>
<path d="M15.7478 24H13.7793V26H15.7478V24Z" fill="#D2D2D2"/>
<path d="M17.7166 24H15.748V26H17.7166V24Z" fill="#D2D2D2"/>
<path d="M19.6848 24H17.7163V26H19.6848V24Z" fill="#D2D2D2"/>
<path d="M21.6536 24H19.6851V26H21.6536V24Z" fill="#D2D2D2"/>
<path d="M23.6218 24H21.6533V26H23.6218V24Z" fill="white"/>
<path d="M25.5906 24H23.6221V26H25.5906V24Z" fill="#676767"/>
<path d="M27.5588 24H25.5903V26H27.5588V24Z" fill="#E3E3E3"/>
<path d="M11.8108 26H9.84229V28H11.8108V26Z" fill="#E3E3E3"/>
<path d="M13.7795 26H11.811V28H13.7795V26Z" fill="#676767"/>
<path d="M15.7478 26H13.7793V28H15.7478V26Z" fill="#D2D2D2"/>
<path d="M17.7166 26H15.748V28H17.7166V26Z" fill="#D2D2D2"/>
<path d="M19.6848 26H17.7163V28H19.6848V26Z" fill="#D2D2D2"/>
<path d="M21.6536 26H19.6851V28H21.6536V26Z" fill="#D2D2D2"/>
<path d="M23.6218 26H21.6533V28H23.6218V26Z" fill="white"/>
<path d="M25.5906 26H23.6221V28H25.5906V26Z" fill="#676767"/>
<path d="M27.5588 26H25.5903V28H27.5588V26Z" fill="#E3E3E3"/>
<path d="M9.84253 28H7.87402V30H9.84253V28Z" fill="#E3E3E3"/>
<path d="M11.8108 28H9.84229V30H11.8108V28Z" fill="#676767"/>
<path d="M13.7795 28H11.811V30H13.7795V28Z" fill="white"/>
<path d="M15.7478 28H13.7793V30H15.7478V28Z" fill="#D2D2D2"/>
<path d="M17.7166 28H15.748V30H17.7166V28Z" fill="#D2D2D2"/>
<path d="M19.6848 28H17.7163V30H19.6848V28Z" fill="#D2D2D2"/>
<path d="M21.6536 28H19.6851V30H21.6536V28Z" fill="#D2D2D2"/>
<path d="M23.6218 28H21.6533V30H23.6218V28Z" fill="white"/>
<path d="M25.5906 28H23.6221V30H25.5906V28Z" fill="white"/>
<path d="M27.5588 28H25.5903V30H27.5588V28Z" fill="#676767"/>
<path d="M29.5276 28H27.5591V30H29.5276V28Z" fill="#E3E3E3"/>
<path d="M9.84253 30H7.87402V32H9.84253V30Z" fill="#E3E3E3"/>
<path d="M11.8108 30H9.84229V32H11.8108V30Z" fill="#676767"/>
<path d="M13.7795 30H11.811V32H13.7795V30Z" fill="white"/>
<path d="M15.7478 30H13.7793V32H15.7478V30Z" fill="#D2D2D2"/>
<path d="M17.7166 30H15.748V32H17.7166V30Z" fill="#D2D2D2"/>
<path d="M19.6848 30H17.7163V32H19.6848V30Z" fill="#D2D2D2"/>
<path d="M21.6536 30H19.6851V32H21.6536V30Z" fill="#D2D2D2"/>
<path d="M23.6218 30H21.6533V32H23.6218V30Z" fill="white"/>
<path d="M25.5906 30H23.6221V32H25.5906V30Z" fill="white"/>
<path d="M27.5588 30H25.5903V32H27.5588V30Z" fill="#676767"/>
<path d="M29.5276 30H27.5591V32H29.5276V30Z" fill="#E3E3E3"/>
<path d="M44.7771 25.67V22.9074H42.0736V20.1448H39.3701V11.857H42.0736V9.09435H44.7771V6.33174H58.2964V9.09435H47.4824V11.857H44.779V20.1448H47.4824V22.9074H52.8894V17.3822H50.186V14.6196H58.2964V25.67H44.7771ZM60.9999 25.67V6.32983H66.4069V9.09245H69.1104V11.8551H71.8139V9.09245H74.5174V6.32983H79.9244V25.67H74.5174V14.6196H71.8139V20.1448H69.1104V14.6196H66.4069V25.67H60.9999ZM88.0367 25.67V22.9074H85.3332V20.1448H82.6298V11.857H85.3332V9.09435H88.0367V6.33174H101.556V9.09435H90.7421V11.857H88.0386V20.1448H90.7421V22.9074H96.1491V17.3822H93.4456V14.6196H101.556V25.67H88.0367ZM104.26 25.67V6.32983H109.666V9.09245H112.37V11.8551H115.074V14.6177H117.777V6.32983H123.184V25.67H117.777V20.1448H115.074V17.3822H112.37V14.6196H109.666V25.67H104.26Z" fill="white"/>
</svg>
