<svg width="364" height="48" viewBox="0 0 364 48" fill="none" xmlns="http://www.w3.org/2000/svg">
<g clip-path="url(#clip0_4111_1136)">
<path fill-rule="evenodd" clip-rule="evenodd" d="M24.7005 17.0986C26.1936 16.3664 28.0935 15.2886 29.9956 13.812C30.3966 14.631 30.4405 15.3458 30.2339 15.9229C30.0875 16.3296 29.8115 16.6834 29.4487 16.9648C29.0558 17.269 28.5651 17.4904 28.0227 17.6101C26.9934 17.8381 25.7918 17.705 24.7005 17.0986ZM24.9594 24.6003L26.9359 25.723C22.9003 27.9473 21.8032 32.0776 20.5 36.1005C19.1969 32.0776 18.0997 27.9473 14.0643 25.723L16.0407 24.6003C16.2319 24.5292 16.3954 24.4005 16.5076 24.2325C16.6198 24.0645 16.6751 23.8659 16.6655 23.6651C16.4844 19.8976 17.5189 18.2315 18.9142 17.1854C19.4146 16.8107 19.961 16.6226 20.5 16.6226C21.039 16.6226 21.5854 16.8107 22.086 17.1854C23.4813 18.2315 24.5157 19.8976 24.3346 23.6651C24.325 23.8659 24.3803 24.0645 24.4925 24.2325C24.6048 24.4005 24.7682 24.5292 24.9594 24.6003ZM20.5 0C22.7846 0.06032 25.0749 0.49648 27.0626 1.34496C28.439 1.93328 29.7234 2.7104 30.8863 3.63968C31.4115 4.0592 31.844 4.46448 32.3204 4.93104C33.6052 4.97472 35.4829 3.57104 36.3546 2.2576C34.8544 7.0944 28.0084 12.8062 23.2688 14.9918C23.2668 14.991 23.2655 14.9899 23.2641 14.989C22.4135 14.3502 21.4568 14.0309 20.5 14.0309C19.5432 14.0309 18.5867 14.3502 17.7361 14.989C17.7346 14.9898 17.7333 14.9912 17.7313 14.9918C12.9916 12.8062 6.14575 7.0944 4.64551 2.2576C5.51708 3.57104 7.39479 4.97472 8.67962 4.93104C9.15616 4.46464 9.58861 4.0592 10.1136 3.63968C11.2766 2.7104 12.561 1.93328 13.9374 1.34496C15.9252 0.49648 18.2155 0.06032 20.5 0ZM16.2994 17.0986C14.8065 16.3664 12.9065 15.2886 11.0046 13.812C10.6035 14.631 10.5596 15.3458 10.7661 15.9229C10.9127 16.3296 11.1886 16.6834 11.5512 16.9648C11.9443 17.269 12.435 17.4904 12.9775 17.6101C14.0067 17.8381 15.2082 17.705 16.2994 17.0986Z" fill="white"/>
<path fill-rule="evenodd" clip-rule="evenodd" d="M32.0788 12.0025C33.1259 10.9633 34.0485 9.81302 34.7905 8.78662L35.1673 9.48406C36.3803 11.8708 37.0106 14.2479 37.0106 16.9231L37.008 21.1682L37.0308 23.3689C37.1187 28.7714 38.3073 34.2375 41 39.2397L35.3662 34.7722L31.38 41.1336L27.1921 37.2567L20.5 47.9365L13.8079 37.2568L9.6202 41.1338L5.63392 34.7724L0 39.2399C2.69266 34.2377 3.88133 28.7716 3.96935 23.369L3.99213 21.1684L3.98953 16.9233C3.98953 14.2479 4.61966 11.8708 5.83306 9.48422L6.20971 8.78678C6.95162 9.81318 7.87412 10.9633 8.9214 12.0026L8.59438 12.6706C7.95904 13.9681 7.74867 15.4188 8.2436 16.7985C8.56265 17.6871 9.14495 18.4492 9.89564 19.0309C10.6245 19.5959 11.4872 19.9767 12.3903 20.1767C12.9786 20.3069 13.578 20.3605 14.1735 20.3423C14.0345 21.1169 13.9738 21.9202 13.9699 22.7388L8.65556 25.7573L12.7565 28.018C13.0843 28.1987 13.3963 28.4057 13.6894 28.637C17.0705 31.6223 19.1032 40.4538 20.5002 44.7676C21.8973 40.4538 23.9298 31.6223 27.311 28.637C27.6041 28.4057 27.9162 28.1987 28.244 28.018L32.3449 25.7573L27.0304 22.7388C27.0265 21.9202 26.9658 21.1169 26.8269 20.3423C27.4223 20.3605 28.0217 20.3069 28.61 20.1767C29.5132 19.9767 30.376 19.5959 31.1047 19.0309C31.8552 18.4492 32.4377 17.6871 32.7566 16.7985C33.2517 15.4188 33.0411 13.9682 32.4059 12.6706L32.0789 12.0026L32.0788 12.0025Z" fill="white"/>
</g>
<path d="M78.208 12C81.0453 12 83.5307 12.5013 85.664 13.504C87.8187 14.4853 89.4827 15.8827 90.656 17.696C91.8507 19.488 92.448 21.5893 92.448 24C92.448 26.4107 91.8507 28.5227 90.656 30.336C89.4827 32.128 87.8187 33.5253 85.664 34.528C83.5307 35.5093 81.0453 36 78.208 36H66.24V12H78.208ZM72.832 33.216L69.664 30.112H78.72C80.1493 30.112 81.3867 29.8667 82.432 29.376C83.4987 28.864 84.32 28.1493 84.896 27.232C85.472 26.3147 85.76 25.2373 85.76 24C85.76 22.7413 85.472 21.664 84.896 20.768C84.32 19.8507 83.4987 19.1467 82.432 18.656C81.3867 18.144 80.1493 17.888 78.72 17.888H69.664L72.832 14.784V33.216ZM116.096 21.6V26.4H98.5278V21.6H116.096ZM103.04 24L101.472 33.632L98.7838 30.624H117.152V36H94.8478L96.6718 24L94.8478 12H116.992V17.376H98.7838L101.472 14.368L103.04 24ZM135.166 25.536V21.504L146.942 36H138.782L131.006 25.952H134.27L126.462 36H118.398L130.238 21.536V25.504L119.102 12H127.39L134.43 21.088H131.166L138.11 12H146.27L135.166 25.536Z" fill="white"/>
<path d="M154.966 28.192H159.254C159.382 29.152 159.777 29.9947 160.438 30.72C161.121 31.4453 162.017 32.0107 163.126 32.416C164.235 32.8 165.515 32.992 166.966 32.992C169.121 32.992 170.827 32.6613 172.086 32C173.345 31.3173 173.974 30.4 173.974 29.248C173.974 28.3093 173.611 27.6053 172.886 27.136C172.161 26.6667 170.849 26.3147 168.95 26.08L163.766 25.408C160.865 25.024 158.753 24.3093 157.43 23.264C156.129 22.1973 155.478 20.6933 155.478 18.752C155.478 17.28 155.915 16.0107 156.79 14.944C157.686 13.856 158.945 13.024 160.566 12.448C162.187 11.8507 164.086 11.552 166.262 11.552C168.417 11.552 170.326 11.872 171.99 12.512C173.654 13.152 174.977 14.048 175.958 15.2C176.961 16.3307 177.505 17.664 177.59 19.2H173.302C173.195 18.3467 172.833 17.6107 172.214 16.992C171.617 16.3733 170.806 15.8933 169.782 15.552C168.758 15.1893 167.553 15.008 166.166 15.008C164.203 15.008 162.635 15.328 161.462 15.968C160.289 16.608 159.702 17.4827 159.702 18.592C159.702 19.4453 160.043 20.1067 160.726 20.576C161.43 21.024 162.646 21.3653 164.374 21.6L169.622 22.336C171.777 22.6347 173.473 23.04 174.71 23.552C175.969 24.0427 176.865 24.7147 177.398 25.568C177.931 26.4 178.198 27.4773 178.198 28.8C178.198 30.336 177.729 31.68 176.79 32.832C175.851 33.984 174.529 34.88 172.822 35.52C171.137 36.1387 169.163 36.448 166.902 36.448C164.598 36.448 162.561 36.1067 160.79 35.424C159.041 34.72 157.654 33.7493 156.63 32.512C155.606 31.2747 155.051 29.8347 154.966 28.192ZM207.438 26.496C207.224 28.4587 206.531 30.1973 205.358 31.712C204.206 33.2053 202.691 34.368 200.814 35.2C198.936 36.032 196.792 36.448 194.382 36.448C191.694 36.448 189.336 35.9253 187.31 34.88C185.283 33.8347 183.704 32.384 182.574 30.528C181.443 28.6507 180.878 26.4747 180.878 24C180.878 21.5253 181.443 19.36 182.574 17.504C183.704 15.6267 185.283 14.1653 187.31 13.12C189.336 12.0747 191.694 11.552 194.382 11.552C196.792 11.552 198.936 11.968 200.814 12.8C202.691 13.632 204.206 14.7947 205.358 16.288C206.531 17.7813 207.224 19.52 207.438 21.504H203.182C202.947 20.224 202.435 19.1253 201.646 18.208C200.878 17.2907 199.875 16.5867 198.638 16.096C197.4 15.584 195.971 15.328 194.35 15.328C192.472 15.328 190.84 15.68 189.454 16.384C188.088 17.088 187.032 18.0907 186.286 19.392C185.539 20.6933 185.166 22.2293 185.166 24C185.166 25.7707 185.539 27.3067 186.286 28.608C187.032 29.9093 188.088 30.912 189.454 31.616C190.84 32.32 192.472 32.672 194.35 32.672C195.971 32.672 197.4 32.4267 198.638 31.936C199.875 31.4453 200.878 30.7413 201.646 29.824C202.435 28.8853 202.947 27.776 203.182 26.496H207.438ZM214.257 22.816H224.017C225.425 22.816 226.534 22.496 227.345 21.856C228.177 21.216 228.593 20.3413 228.593 19.232C228.593 18.1013 228.177 17.2267 227.345 16.608C226.534 15.968 225.425 15.648 224.017 15.648H213.649L215.537 13.28V36H211.313V12H224.401C226.086 12 227.558 12.3093 228.817 12.928C230.097 13.5253 231.089 14.368 231.793 15.456C232.518 16.5227 232.881 17.7813 232.881 19.232C232.881 20.64 232.518 21.888 231.793 22.976C231.089 24.0427 230.097 24.8853 228.817 25.504C227.558 26.1013 226.086 26.4 224.401 26.4H214.257V22.816ZM218.993 24.768H223.953L233.489 36H228.433L218.993 24.768ZM256.419 22.24V25.76H239.651V22.24H256.419ZM242.435 24L240.739 34.72L238.723 32.352H257.347V36H236.419L238.339 24L236.419 12H257.187V15.648H238.723L240.739 13.28L242.435 24ZM280.919 22.24V25.76H264.151V22.24H280.919ZM266.935 24L265.239 34.72L263.223 32.352H281.847V36H260.919L262.839 24L260.919 12H281.687V15.648H263.223L265.239 13.28L266.935 24ZM308.491 33.44L306.763 33.632V12H310.859V36H305.483L288.651 14.368L290.347 14.176V36H286.251V12H291.755L308.491 33.44ZM335.387 22.24V25.76H318.619V22.24H335.387ZM321.403 24L319.707 34.72L317.691 32.352H336.315V36H315.387L317.307 24L315.387 12H336.155V15.648H317.691L319.707 13.28L321.403 24ZM343.663 22.816H353.423C354.831 22.816 355.941 22.496 356.751 21.856C357.583 21.216 357.999 20.3413 357.999 19.232C357.999 18.1013 357.583 17.2267 356.751 16.608C355.941 15.968 354.831 15.648 353.423 15.648H343.055L344.943 13.28V36H340.719V12H353.807C355.493 12 356.965 12.3093 358.223 12.928C359.503 13.5253 360.495 14.368 361.199 15.456C361.925 16.5227 362.287 17.7813 362.287 19.232C362.287 20.64 361.925 21.888 361.199 22.976C360.495 24.0427 359.503 24.8853 358.223 25.504C356.965 26.1013 355.493 26.4 353.807 26.4H343.663V22.816ZM348.399 24.768H353.359L362.895 36H357.839L348.399 24.768Z" fill="white" fill-opacity="0.4"/>
<defs>
<clipPath id="clip0_4111_1136">
<rect width="41" height="48" fill="white"/>
</clipPath>
</defs>
</svg>
