<svg width="144" height="32" viewBox="0 0 144 32" fill="none" xmlns="http://www.w3.org/2000/svg">
<g clip-path="url(#clip0_4111_1326)">
<path d="M112.527 15.9853C112.527 15.1692 112.527 14.4015 112.499 13.6925C112.481 13.0236 112.412 12.357 112.295 11.6976C112.185 11.0956 111.99 10.5109 111.717 9.95965C111.429 9.39132 111.043 8.87421 110.577 8.43011C109.916 7.77415 109.129 7.24915 108.26 6.88442C107.321 6.51593 106.315 6.33326 105.301 6.34717C104.284 6.33445 103.274 6.51704 102.33 6.88442C101.456 7.24417 100.665 7.76689 99.9997 8.42277C99.5344 8.8666 99.1504 9.38382 98.8642 9.95231C98.5933 10.5037 98.402 11.0885 98.2957 11.6903C98.1807 12.3498 98.1148 13.0165 98.0986 13.6852C98.0804 14.3941 98.0713 15.1619 98.0759 15.978C98.0804 16.7941 98.0759 17.556 98.0986 18.2694C98.1148 18.938 98.1807 19.6047 98.2957 20.2642C98.402 20.8661 98.5933 21.4509 98.8642 22.0022C99.1515 22.5701 99.5354 23.0871 99.9997 23.5318C100.664 24.1882 101.456 24.7101 102.33 25.0672C103.273 25.437 104.283 25.6206 105.301 25.6074C106.315 25.6218 107.322 25.4381 108.26 25.0672C109.129 24.7073 109.916 24.1856 110.577 23.5318C111.042 23.0868 111.427 22.5699 111.717 22.0022C111.99 21.451 112.185 20.8663 112.295 20.2642C112.411 19.6068 112.478 18.9421 112.496 18.2752C112.519 17.5619 112.53 16.7986 112.524 15.9839L112.527 15.9853ZM108.706 15.9853C108.706 16.8896 108.693 17.6426 108.661 18.2415C108.643 18.7334 108.592 19.2237 108.509 19.7094C108.452 20.0329 108.35 20.3475 108.206 20.6444C108.089 20.8837 107.935 21.1049 107.751 21.3006C107.467 21.616 107.113 21.8666 106.717 22.0345C106.271 22.2193 105.791 22.3132 105.306 22.3105C104.818 22.3126 104.336 22.2187 103.887 22.0345C103.481 21.8698 103.118 21.619 102.826 21.3006C102.64 21.1058 102.487 20.8844 102.371 20.6444C102.23 20.3472 102.133 20.0325 102.083 19.7094C102.002 19.2235 101.951 18.7333 101.931 18.2415C101.904 17.6426 101.89 16.8905 101.89 15.9853C101.89 15.0811 101.904 14.3266 101.931 13.7277C101.951 13.2359 102.002 12.7457 102.083 12.2598C102.133 11.9367 102.23 11.622 102.371 11.3248C102.487 11.085 102.64 10.8637 102.826 10.6686C103.119 10.3507 103.481 10.1 103.887 9.9347C104.335 9.74846 104.818 9.65448 105.306 9.65873C105.791 9.65386 106.272 9.74788 106.717 9.9347C107.113 10.1031 107.466 10.3536 107.751 10.6686C107.935 10.8646 108.088 11.0857 108.206 11.3248C108.35 11.6217 108.452 11.9363 108.509 12.2598C108.592 12.7455 108.643 13.2358 108.661 13.7277C108.694 14.3252 108.706 15.0797 108.706 15.9853Z" fill="white"/>
<path d="M142.968 6.83759C142.966 6.65909 142.817 6.51478 142.633 6.51318H139.481C139.296 6.51399 139.147 6.65876 139.146 6.83759V18.111L131.46 6.60419C131.408 6.52639 131.363 6.51318 131.249 6.51318H128.326C128.142 6.51555 127.994 6.65942 127.991 6.83759V25.1304C127.994 25.3084 128.142 25.4518 128.326 25.4534H131.477C131.66 25.4526 131.809 25.3085 131.81 25.1304V13.8277L139.498 25.3609C139.551 25.4387 139.593 25.4519 139.709 25.4519H142.63C142.814 25.4511 142.963 25.3072 142.965 25.129L142.968 6.83759Z" fill="white"/>
<path d="M121.841 6.83759C121.84 6.65876 121.69 6.51399 121.506 6.51318H118.357C118.172 6.51399 118.023 6.65876 118.022 6.83759V25.129C118.023 25.3078 118.172 25.4526 118.357 25.4534H121.506C121.69 25.4526 121.84 25.3078 121.841 25.129V6.83759Z" fill="white"/>
<path d="M84.1465 15.9855C84.1465 15.0754 84.1571 14.3179 84.1844 13.7146C84.2029 13.2227 84.2536 12.7325 84.336 12.2468C84.6271 10.6174 85.9157 9.65593 87.5606 9.65593C88.6339 9.66473 89.6072 10.0493 90.2288 10.9242C90.5102 11.3326 90.7155 11.7857 90.8352 12.2629C90.8444 12.3132 90.8918 12.3482 90.9443 12.3436H94.651C94.704 12.3436 94.7237 12.3084 94.7146 12.2585C94.3099 10.0376 93.0864 8.04271 90.9246 7.05482C89.8621 6.57851 88.7024 6.34019 87.5318 6.35758C85.4447 6.35758 83.6866 7.04944 82.2575 8.43317C81.4416 9.20312 80.8847 10.1936 80.6597 11.275C80.4413 12.3397 80.3312 13.9094 80.3291 15.984C80.3271 18.0586 80.4373 19.6278 80.6597 20.6915C80.8828 21.7743 81.4381 22.7668 82.253 23.5392C83.6811 24.922 85.4391 25.6134 87.5272 25.6134C88.6977 25.6305 89.8572 25.3927 90.9201 24.9176C93.0819 23.9297 94.3053 21.9348 94.7101 19.7139C94.7192 19.6625 94.6995 19.6288 94.6464 19.6288H90.9382C90.8855 19.6234 90.8376 19.6588 90.8291 19.7095C90.7091 20.1861 90.5039 20.6387 90.2227 21.0468C89.6011 21.9275 88.6278 22.3077 87.5545 22.315C85.9096 22.315 84.621 21.355 84.3299 19.7257C84.2476 19.2399 84.1969 18.7497 84.1783 18.2578C84.1571 17.6515 84.1465 16.8926 84.1465 15.9855Z" fill="white"/>
<path d="M44.9971 6.83759C44.9962 6.65876 44.8467 6.51399 44.662 6.51318H41.5133C41.3286 6.51399 41.1791 6.65876 41.1782 6.83759V25.1304C41.1799 25.3087 41.3292 25.4526 41.5133 25.4535H44.662C44.8461 25.4526 44.9954 25.3087 44.9971 25.1304V19.7609L47.5243 16.8354L52.7151 25.3565C52.7551 25.4193 52.827 25.4564 52.9031 25.4535H56.7295C56.9054 25.4535 56.9372 25.3477 56.8493 25.2024L50.053 14.0464L56.2884 6.80383C56.4142 6.65704 56.3611 6.51759 56.1641 6.51759H51.9814C51.9305 6.51469 51.8815 6.53675 51.851 6.5763L44.9971 14.5352V6.83759Z" fill="white"/>
<path d="M67.9373 22.315C66.1651 22.315 64.5581 20.7268 64.5581 18.8302V6.83759C64.5573 6.65876 64.4078 6.51399 64.2231 6.51318H61.0743C60.8896 6.51399 60.7401 6.65876 60.7393 6.83759V18.7833C60.7393 22.9594 63.9653 25.6134 67.9373 25.6134C71.9093 25.6134 75.1354 22.9594 75.1354 18.7833V6.83759C75.1337 6.65909 74.9847 6.51478 74.8003 6.51318H71.65C71.4659 6.51479 71.3173 6.65933 71.3165 6.83759V18.8302C71.3165 20.7253 69.708 22.315 67.9373 22.315Z" fill="white"/>
<path fill-rule="evenodd" clip-rule="evenodd" d="M9.52665 15.9854L19.3019 25.4518L25.4721 19.4775C26.5754 18.5156 28.2634 18.5584 29.3132 19.5749C30.363 20.5914 30.4072 22.2257 29.4138 23.294L21.2712 31.1795C20.1775 32.221 18.4233 32.221 17.3296 31.1795L5.58198 19.8019V26.5645C5.58198 28.0569 4.33241 29.2668 2.79099 29.2668C1.24957 29.2668 0 28.0569 0 26.5645V5.39749C0 3.905 1.24957 2.6951 2.79099 2.6951C4.33241 2.6951 5.58198 3.905 5.58198 5.39749V12.1601L17.3281 0.785375C18.4215 -0.256909 20.1763 -0.256909 21.2697 0.785375L29.4183 8.66941C30.4118 9.7377 30.3676 11.3721 29.3178 12.3886C28.2679 13.405 26.58 13.4478 25.4767 12.4859L19.3065 6.51161L9.52665 15.9854ZM19.3065 13.2801C18.1763 13.2795 17.157 13.9382 16.7241 14.9491C16.2911 15.9599 16.5298 17.1238 17.3288 17.8978C18.1277 18.6718 19.3296 18.9036 20.3738 18.4849C21.4181 18.0663 22.099 17.0797 22.099 15.9854C22.0994 15.2679 21.8054 14.5796 21.2817 14.072C20.758 13.5644 20.0475 13.279 19.3065 13.2786V13.2801Z" fill="white"/>
</g>
<defs>
<clipPath id="clip0_4111_1326">
<rect width="144" height="32" fill="white"/>
</clipPath>
</defs>
</svg>
