<svg width="234" height="32" viewBox="0 0 234 32" fill="none" xmlns="http://www.w3.org/2000/svg">
<path d="M26.9204 5.53436H0V28.2957H26.9204V5.53436Z" fill="black"/>
<path d="M19.8159 16.2814H7.10521L13.4603 5.53448L19.8159 16.2814Z" fill="#FCFCFC"/>
<path d="M26.9204 28.2957H0L5.14349 19.5981H21.7769L26.9204 28.2957Z" fill="#FCFCFC"/>
<path d="M149.773 31.3101V0.690084H156.165L165.277 25.833L174.389 0.690084H180.78V31.3101H176.116V8.88417L167.868 31.267H162.686L154.437 8.88417V31.3101H149.773Z" fill="#FCFCFC"/>
<path d="M131.32 32C122.424 32 117.026 25.9623 117.026 16.0432C117.026 6.124 122.424 0 131.32 0C140.303 0 145.658 6.124 145.658 16.0432C145.658 25.9623 140.303 32 131.32 32ZM131.32 27.7304C137.28 27.7304 140.821 23.4178 140.821 16.0432C140.821 8.66848 137.28 4.26955 131.32 4.26955C125.404 4.26955 121.863 8.66848 121.863 16.0432C121.863 23.4178 125.404 27.7304 131.32 27.7304Z" fill="#FCFCFC"/>
<path d="M108.233 31.3101V0.690084H112.897V31.3101H108.233Z" fill="#FCFCFC"/>
<path d="M79.0774 31.3101L89.2691 15.957L79.1638 0.690084H84.6483L92.2057 12.3343L99.6335 0.690084H105.075L94.9695 15.8707L105.204 31.3101H99.7199L92.1193 19.4934L84.5187 31.3101H79.0774Z" fill="#FCFCFC"/>
<path d="M50.428 31.3101L61.4834 0.690084H67.3998L78.4552 31.3101H73.4889L70.6818 23.3317H58.1581L55.3942 31.3101H50.428ZM59.6264 19.1053H69.2567L64.4199 5.13214L59.6264 19.1053Z" fill="#FCFCFC"/>
<path d="M227.33 31.8275C223.26 31.8275 220.631 28.7793 220.631 24.0093C220.631 19.2393 223.26 16.191 227.33 16.191C231.371 16.191 234 19.2393 234 24.0093C234 28.7793 231.371 31.8275 227.33 31.8275ZM227.33 30.0494C230.268 30.0494 232.049 27.7632 232.049 24.0093C232.049 20.2553 230.268 17.9691 227.33 17.9691C224.362 17.9691 222.581 20.2553 222.581 24.0093C222.581 27.7632 224.362 30.0494 227.33 30.0494Z" fill="#FCFCFC"/>
<path d="M212.4 31.4893V16.5301H214.011L214.096 19.4938C214.69 17.4898 215.905 16.5301 217.855 16.5301H219.155V18.3365H217.799C215.538 18.3365 214.266 19.8889 214.266 22.3727V31.4893H212.4Z" fill="#FCFCFC"/>
<path d="M194.856 31.4891V11.4494H201.894C206.303 11.4494 208.903 13.7074 208.903 17.433C208.903 21.1588 206.303 23.4167 201.894 23.4167H196.778V31.4891H194.856ZM196.778 21.554H201.894C205.172 21.554 206.868 20.1144 206.868 17.433C206.868 14.7235 205.172 13.3123 201.894 13.3123H196.778V21.554Z" fill="#FCFCFC"/>
</svg>
