<svg width="40" height="40" viewBox="0 0 40 40" fill="none" xmlns="http://www.w3.org/2000/svg">
<path d="M0 20C0 8.95431 8.95431 0 20 0C31.0457 0 40 8.95431 40 20C40 31.0457 31.0457 40 20 40C8.95431 40 0 31.0457 0 20Z" fill="#FF0000"/>
<path d="M26.9311 17.99L25.4901 17.389L27.2071 16.476C27.7309 16.2017 28.1952 15.8264 28.5733 15.3718C28.9513 14.9172 29.2357 14.3923 29.4099 13.8273C29.5841 13.2623 29.6447 12.6683 29.5883 12.0798C29.5319 11.4912 29.3595 10.9196 29.0811 10.398C28.522 9.34201 27.5663 8.55134 26.4242 8.19991C25.2821 7.84847 24.0472 7.96506 22.9911 8.52401L12.7921 13.929C12.0344 14.3271 11.406 14.9331 10.9806 15.6757C10.5551 16.4184 10.3503 17.267 10.3901 18.122C10.4309 18.9554 10.7015 19.7613 11.1721 20.4503C11.6426 21.1394 12.2947 21.6848 13.0561 22.026C13.0921 22.038 14.4981 22.626 14.4981 22.626L12.7921 23.527C12.0762 23.9132 11.4781 24.4857 11.061 25.1841C10.644 25.8825 10.4236 26.6806 10.4231 27.494C10.4294 28.6873 10.9063 29.8299 11.7502 30.6736C12.5941 31.5173 13.7368 31.994 14.9301 32C15.6551 32 16.3671 31.826 17.0101 31.492L27.2201 26.086C27.9762 25.6872 28.6028 25.0809 29.0261 24.3384C29.4495 23.5958 29.6521 22.7478 29.6101 21.894C29.5672 21.0596 29.2943 20.2533 28.8217 19.5643C28.3491 18.8753 27.6941 18.3305 26.9311 17.99ZM17.5971 23.19V16.824L23.6041 20.008L17.5971 23.19Z" fill="white"/>
</svg>
