<svg width="40" height="40" viewBox="0 0 40 40" fill="none" xmlns="http://www.w3.org/2000/svg">
<path d="M0 20C0 8.95431 8.95431 0 20 0C31.0457 0 40 8.95431 40 20C40 31.0457 31.0457 40 20 40C8.95431 40 0 31.0457 0 20Z" fill="#8200CD"/>
<path d="M20 10C18.0222 10 16.0888 10.5865 14.4443 11.6853C12.7998 12.7841 11.5181 14.3459 10.7612 16.1732C10.0043 18.0004 9.8063 20.0111 10.1922 21.9509C10.578 23.8907 11.5304 25.6725 12.9289 27.0711C14.3275 28.4696 16.1093 29.422 18.0491 29.8079C19.9889 30.1937 21.9996 29.9957 23.8268 29.2388C25.6541 28.4819 27.2159 27.2002 28.3147 25.5557C29.4135 23.9112 30 21.9778 30 20C29.9974 17.3486 28.9429 14.8066 27.0681 12.9319C25.1934 11.0571 22.6514 10.0026 20 10ZM25.939 17.713V18.359C25.939 18.4084 25.9291 18.4574 25.9099 18.5029C25.8907 18.5485 25.8625 18.5897 25.8271 18.6242C25.7917 18.6587 25.7497 18.6858 25.7037 18.7038C25.6576 18.7218 25.6084 18.7303 25.559 18.729C24.5032 18.6544 23.493 18.2689 22.656 17.621V22.349C22.6558 22.8723 22.5513 23.3903 22.3487 23.8727C22.1461 24.3552 21.8494 24.7924 21.476 25.159C21.0995 25.5351 20.6517 25.8324 20.1589 26.0333C19.6661 26.2342 19.1382 26.3347 18.606 26.329C17.5359 26.3274 16.5088 25.9076 15.744 25.159C15.2574 24.6684 14.9069 24.0596 14.727 23.3924C14.5471 22.7252 14.544 22.0227 14.718 21.354C14.877 20.712 15.198 20.122 15.651 19.641C15.9888 19.2281 16.4147 18.8959 16.8974 18.6687C17.3801 18.4416 17.9075 18.3251 18.441 18.328H19.261V20.031C19.2614 20.0805 19.2512 20.1294 19.2311 20.1746C19.2111 20.2199 19.1816 20.2603 19.1447 20.2932C19.1078 20.3261 19.0643 20.3508 19.0171 20.3656C18.9699 20.3804 18.9201 20.385 18.871 20.379C18.3949 20.236 17.8819 20.2834 17.44 20.5113C16.9982 20.7392 16.6621 21.1297 16.5026 21.6006C16.3431 22.0714 16.3727 22.5858 16.5851 23.0353C16.7974 23.4847 17.176 23.8342 17.641 24.01C17.911 24.165 18.213 24.256 18.523 24.277C18.763 24.287 19.003 24.257 19.231 24.185C19.6116 24.0566 19.9427 23.8126 20.1781 23.4871C20.4134 23.1616 20.5414 22.7707 20.544 22.369V13.754C20.544 13.6587 20.5818 13.5673 20.6491 13.4998C20.7164 13.4323 20.8077 13.3943 20.903 13.394H22.318C22.4099 13.3941 22.4984 13.4294 22.5651 13.4926C22.6319 13.5558 22.6719 13.6422 22.677 13.734C22.7286 14.1752 22.8687 14.6015 23.089 14.9873C23.3093 15.373 23.6052 15.7103 23.959 15.979C24.4371 16.3379 25.0049 16.558 25.6 16.615C25.6891 16.6226 25.7725 16.6623 25.8346 16.7266C25.8968 16.791 25.9335 16.8757 25.938 16.965L25.939 17.713Z" fill="white"/>
</svg>
