<svg width="48" height="48" viewBox="0 0 48 48" fill="none" xmlns="http://www.w3.org/2000/svg">
<g filter="url(#filter0_d_4101_1055)">
<path d="M4 32H11.778L22.366 40.664C22.5125 40.7841 22.6901 40.8602 22.8781 40.8833C23.0662 40.9063 23.2569 40.8755 23.4281 40.7944C23.5993 40.7133 23.7439 40.5853 23.8452 40.4252C23.9464 40.2651 24.0001 40.0795 24 39.89V8.11004C24.0001 7.9206 23.9464 7.73502 23.8452 7.57491C23.7439 7.41479 23.5993 7.28673 23.4281 7.20564C23.2569 7.12454 23.0662 7.09374 22.8781 7.11683C22.6901 7.13992 22.5125 7.21594 22.366 7.33604L11.78 16H4C3.46957 16 2.96086 16.2108 2.58579 16.5858C2.21071 16.9609 2 17.4696 2 18V30C2 30.5305 2.21071 31.0392 2.58579 31.4143C2.96086 31.7893 3.46957 32 4 32ZM46 24C46 30.584 43.108 36.492 38.524 40.524L35.688 37.688C37.6691 36.0001 39.2596 33.9017 40.3495 31.5383C41.4393 29.1748 42.0025 26.6027 42 24C42.0028 21.3975 41.4399 18.8255 40.3504 16.4621C39.2609 14.0986 37.6707 12.0002 35.69 10.312L38.524 7.47604C40.876 9.53821 42.7599 12.0795 44.0493 14.9294C45.3387 17.7793 46.0038 20.872 46 24ZM36 24C36.0014 22.185 35.5904 20.3934 34.7981 18.7605C34.0057 17.1276 32.8526 15.6961 31.426 14.574L28.568 17.432C29.6274 18.1689 30.4928 19.151 31.0904 20.2947C31.688 21.4384 32.0001 22.7096 32 24C32 26.72 30.642 29.122 28.568 30.568L31.428 33.428C32.8545 32.3056 34.0074 30.8737 34.7994 29.2404C35.5914 27.6071 36.002 25.8152 36 24Z" fill="#F9E7C0"/>
</g>
<defs>
<filter id="filter0_d_4101_1055" x="2" y="7.10938" width="44" height="35.7812" filterUnits="userSpaceOnUse" color-interpolation-filters="sRGB">
<feFlood flood-opacity="0" result="BackgroundImageFix"/>
<feColorMatrix in="SourceAlpha" type="matrix" values="0 0 0 0 0 0 0 0 0 0 0 0 0 0 0 0 0 0 127 0" result="hardAlpha"/>
<feOffset dy="2"/>
<feComposite in2="hardAlpha" operator="out"/>
<feColorMatrix type="matrix" values="0 0 0 0 0.197115 0 0 0 0 0.0754146 0 0 0 0 0.00758136 0 0 0 1 0"/>
<feBlend mode="normal" in2="BackgroundImageFix" result="effect1_dropShadow_4101_1055"/>
<feBlend mode="normal" in="SourceGraphic" in2="effect1_dropShadow_4101_1055" result="shape"/>
</filter>
</defs>
</svg>
