<svg width="48" height="48" viewBox="0 0 48 48" fill="none" xmlns="http://www.w3.org/2000/svg">
<path d="M11.778 32H4C3.46957 32 2.96086 31.7893 2.58579 31.4142C2.21071 31.0391 2 30.5304 2 30V18C2 17.4696 2.21071 16.9609 2.58579 16.5858C2.96086 16.2107 3.46957 16 4 16H11.778L22.366 7.336C22.5125 7.21589 22.6901 7.13987 22.8781 7.11679C23.0662 7.0937 23.2569 7.1245 23.4281 7.2056C23.5993 7.28669 23.7439 7.41475 23.8452 7.57487C23.9464 7.73498 24.0001 7.92056 24 8.11V39.89C24.0001 40.0794 23.9464 40.265 23.8452 40.4251C23.7439 40.5852 23.5993 40.7133 23.4281 40.7944C23.2569 40.8755 23.0662 40.9063 22.8781 40.8832C22.6901 40.8601 22.5125 40.7841 22.366 40.664L11.778 32ZM40.828 24L47.9 31.072L45.07 33.9L38 26.828L30.928 33.9L28.1 31.072L35.172 24L28.1 16.93L30.928 14.1L38 21.172L45.07 14.1L47.9 16.93L40.828 24Z" fill="#F9E7C0"/>
</svg>
